<svg width="486" height="120" fill="none" xmlns="http://www.w3.org/2000/svg"><g clip-path="url(#clip0_482:5464)" fill="#fff"><path d="M79.056 113.506c-1.612-1.777-2.417-3.99-2.417-6.673 0-2.649.805-4.873 2.417-6.65 1.643-1.778 3.668-2.683 6.085-2.683s4.42.905 6.053 2.683c1.643 1.777 2.449 3.99 2.449 6.65 0 2.649-.806 4.896-2.449 6.673-1.632 1.777-3.636 2.649-6.053 2.649s-4.442-.872-6.085-2.649zm6.085 1.52c2.078 0 3.806-.771 5.226-2.347s2.12-3.499 2.12-5.846-.71-4.281-2.12-5.846c-1.42-1.576-3.148-2.347-5.226-2.347s-3.817.771-5.227 2.347c-1.42 1.565-2.13 3.499-2.13 5.846s.71 4.27 2.13 5.846c1.421 1.576 3.16 2.347 5.227 2.347zm12.902.827V97.824h11.407v1.107H99.167v6.002h5.714c1.855 0 3.297.514 4.346 1.52 1.05 1.006 1.559 2.314 1.559 3.935 0 3.297-2.174 5.465-5.905 5.465h-6.838zm1.124-1.106h5.618c3.107 0 4.856-1.576 4.856-4.359 0-2.75-1.802-4.348-4.856-4.348h-5.618v8.707zm15.243 1.073v-1.14c.541.234 1.124.335 1.739.335 1.558 0 2.491-1.207 3.594-3.812l.095-.234-6.965-13.156h1.293l6.255 11.87 5.174-11.87h1.25l-6.307 14.24c-1.347 3.018-2.545 4.091-4.23 4.091-.7.011-1.336-.09-1.898-.324zm15.807.033V97.824h7.177c3 0 4.792 1.643 4.792 4.348 0 1.979-.785 3.264-2.375 3.868 2.449.391 3.912 2.213 3.912 4.817 0 3.018-2.046 4.996-5.492 4.996h-8.014zm1.124-1.106h6.721c2.83 0 4.442-1.442 4.442-3.991 0-2.548-1.612-3.99-4.442-3.99h-6.721v7.981zm0-9.02h5.915c2.449 0 3.838-1.241 3.838-3.398 0-2.158-1.389-3.398-3.838-3.398h-5.915v6.796zm16.442 10.126V97.824h1.124v7.087h5.64c1.876 0 3.318.514 4.367 1.52 1.05 1.006 1.559 2.313 1.559 3.934 0 3.32-2.195 5.488-5.937 5.488h-6.753zm1.124-1.106h5.566c3.106 0 4.887-1.599 4.887-4.382 0-2.749-1.781-4.348-4.887-4.348h-5.566v8.73zm21.966-8.663c0-1.363 1.103-2.526 2.396-2.526 1.336 0 2.417 1.107 2.417 2.526 0 1.364-1.081 2.493-2.417 2.493-1.304.011-2.396-1.118-2.396-2.493zm18.191 7.444c-1.633-1.777-2.47-3.99-2.47-6.695s.827-4.918 2.47-6.673c1.632-1.777 3.689-2.65 6.127-2.65 1.856 0 3.499.47 4.888 1.42v1.286c-1.495-1.051-3.107-1.565-4.856-1.565-2.099 0-3.88.771-5.322 2.347-1.441 1.543-2.152 3.499-2.152 5.846s.711 4.303 2.152 5.868c1.442 1.542 3.223 2.314 5.354 2.314 2.025 0 3.763-.615 5.226-1.878v1.308c-1.42 1.128-3.169 1.699-5.279 1.699-2.438 0-4.495-.872-6.138-2.627zm14.758 2.292v-1.14c.541.234 1.124.335 1.739.335 1.558 0 2.491-1.207 3.594-3.812l.095-.234-6.965-13.156h1.294l6.254 11.87 5.174-11.87h1.251l-6.308 14.24c-1.347 3.018-2.544 4.091-4.23 4.091-.7.011-1.336-.09-1.898-.324zm15.815.033V97.824h1.145l6.647 9.188 6.647-9.188h1.092v18.029h-1.124V99.657l-6.255 8.652h-.731l-6.308-8.652v16.196h-1.113zm20.685 0V97.824h1.124v7.959l8.693-7.959h1.59l-9.011 8.26 10.379 9.758h-1.707l-9.944-9.378v9.378h-1.124v.011zm15.596 0V97.824h1.124v16.017l11.555-16.017h1.028v18.029h-1.123V99.78l-11.598 16.073h-.986zm25.377-9.769c0-1.363 1.102-2.526 2.396-2.526 1.346 0 2.417 1.107 2.417 2.526 0 1.364-1.071 2.493-2.417 2.493-1.294.011-2.396-1.118-2.396-2.493zm17.438 7.422c-1.611-1.777-2.417-3.99-2.417-6.673 0-2.649.806-4.873 2.417-6.65 1.633-1.778 3.668-2.683 6.086-2.683 2.417 0 4.42.905 6.053 2.683 1.632 1.777 2.438 3.99 2.438 6.65 0 2.649-.806 4.896-2.438 6.673-1.633 1.777-3.636 2.649-6.053 2.649-2.418 0-4.453-.872-6.086-2.649zm6.086 1.52c2.077 0 3.805-.771 5.226-2.347 1.42-1.576 2.12-3.499 2.12-5.846s-.71-4.281-2.12-5.846c-1.421-1.576-3.149-2.347-5.226-2.347-2.078 0-3.806.771-5.227 2.347-1.42 1.565-2.131 3.499-2.131 5.846s.711 4.27 2.131 5.846c1.41 1.576 3.149 2.347 5.227 2.347zm9.626 4.963v-5.253h1.59c1.145-1.677 1.983-3.611 2.492-5.768.509-2.168.784-5.253.784-9.266v-1.878h9.987v16.923h2.682V120h-1.071v-4.147h-15.393V120h-1.071v-.011zm13.729-5.242V98.931h-7.739v1.207c0 6.874-.859 11.412-3.074 14.609h10.813zm7.209 1.106V97.824h11.428v1.107h-10.304v6.673h8.523v1.106h-8.523v8.037h10.696v1.106h-11.82zm13.599 0l9.139-9.556-8.153-8.473h1.485l7.813 8.16v-8.16h1.123v8.216l7.867-8.216h1.494l-8.184 8.473 9.16 9.556h-1.538l-8.788-9.165v9.165h-1.124v-9.143l-8.746 9.143h-1.548zm22.793 4.136v-5.253h1.591c1.144-1.677 1.982-3.611 2.491-5.768.509-2.168.784-5.253.784-9.266v-1.878h9.987v16.923h2.682V120h-1.071v-4.147h-15.393V120h-1.071v-.011zm13.729-5.242V98.931h-7.739v1.207c0 6.874-.859 11.412-3.074 14.609h10.813zm5.449 1.106l7.771-18.13h1.049l7.718 18.13h-1.177l-2.268-5.309h-9.626l-2.269 5.309h-1.198zm3.859-6.337h8.82l-4.399-10.25-4.421 10.25zM.947 31.362c0-5.097-.096-10.112-.302-15.046C.453 11.382.233 6.448 0 1.5c2.031.163 4.117.284 6.23.406 2.114.122 4.187.176 6.232.176 2.03 0 4.117-.095 6.23-.298a69.774 69.774 0 016.231-.284c3.363 0 6.533.257 9.511.757 2.978.5 5.6 1.393 7.878 2.664 2.264 1.27 4.076 2.987 5.407 5.15 1.331 2.163 2.004 4.866 2.004 8.097 0 5.705-1.825 10.18-5.462 13.423-3.637 3.245-8.4 5.516-14.274 6.827v.23c6.972.31 12.476 1.973 16.51 4.974 4.035 3.015 6.053 7.827 6.053 14.465 0 4.325-.906 7.948-2.704 10.882-1.797 2.933-4.158 5.299-7.054 7.124-2.896 1.81-6.093 3.082-9.58 3.811A50.672 50.672 0 0122.81 81c-1.88 0-3.774-.041-5.696-.122a134.894 134.894 0 00-5.696-.122H5.723c-1.921 0-3.815.081-5.696.23.234-4.934.453-9.855.645-14.762.193-4.893.302-9.895.302-14.978V31.362H.947zm15.975 5.664c2.745 0 5.462-.27 8.166-.811 2.703-.541 5.105-1.447 7.233-2.718a14.867 14.867 0 005.105-5.096c1.29-2.122 1.935-4.799 1.935-8.043 0-3.163-.59-5.691-1.757-7.584-1.18-1.892-2.662-3.352-4.46-4.393-1.798-1.04-3.843-1.73-6.107-2.082a44.408 44.408 0 00-6.807-.527c-2.045 0-3.76.054-5.175.176a78.244 78.244 0 00-3.76.405c-.165 3.704-.316 7.368-.467 10.99a263.821 263.821 0 00-.233 10.99v8.68h6.327v.013zm-6.34 16.086c0 3.934.082 7.827.233 11.693.15 3.853.315 7.76.466 11.693 1.482.149 3.253.284 5.284.406 2.031.121 4.104.175 6.23.175 2.512 0 4.914-.419 7.22-1.27 2.306-.852 4.337-2.096 6.052-3.758 1.716-1.663 3.088-3.704 4.117-6.138 1.016-2.433 1.524-5.19 1.524-8.272 0-3.312-.604-6.03-1.825-8.165-1.222-2.123-2.951-3.772-5.23-4.975-2.264-1.19-4.995-2.028-8.165-2.487-3.17-.46-6.725-.69-10.636-.69h-5.284v11.788h.013zM72.726 31.47c0-5.097-.096-10.085-.302-14.992-.192-4.893-.411-9.895-.645-14.991 2.279.162 4.502.284 6.698.405 2.196.122 4.419.176 6.697.176 2.278 0 4.502-.095 6.697-.297 2.196-.19 4.42-.284 6.698-.284 3.294 0 6.423.31 9.401.933 2.978.621 5.586 1.635 7.809 3.068a15.567 15.567 0 015.284 5.61c1.29 2.312 1.935 5.204 1.935 8.679 0 3.703-.837 6.88-2.525 9.543-1.688 2.663-3.733 4.853-6.162 6.597a31.272 31.272 0 01-7.809 4.055c-2.773.974-5.312 1.609-7.576 1.906.933 1.163 2.237 2.772 3.87 4.853a544.176 544.176 0 005.531 6.881c2.031 2.5 4.158 5.137 6.34 7.867 2.196 2.745 4.31 5.367 6.341 7.868a245.808 245.808 0 005.764 6.88c1.798 2.082 3.253 3.664 4.351 4.745a25.768 25.768 0 00-3.527-.23h-6.931c-1.18 0-2.306.082-3.404.23a604.41 604.41 0 00-5.352-7.286c-2.388-3.244-5.037-6.705-7.933-10.422a603.303 603.303 0 00-8.865-11.044c-3.02-3.664-5.778-6.773-8.276-9.314h-4.46v8.449c0 5.096.096 10.11.288 15.045.192 4.934.411 9.8.645 14.586-1.798-.162-3.72-.23-5.765-.23-2.03 0-3.952.081-5.764.23.234-4.785.453-9.639.645-14.586.192-4.934.302-9.95.302-15.046V31.47zm9.635 6.596c1.098.23 2.292.392 3.582.46 1.29.081 2.717.122 4.282.122 2.429 0 4.954-.27 7.575-.811 2.622-.541 5.037-1.487 7.233-2.84 2.196-1.351 4.008-3.162 5.462-5.433 1.455-2.271 2.182-5.15 2.182-8.625 0-3.014-.562-5.502-1.701-7.462-1.139-1.973-2.608-3.528-4.406-4.69a16.985 16.985 0 00-5.874-2.38 32.07 32.07 0 00-6.23-.635c-2.745 0-5.01.054-6.808.176a93.013 93.013 0 00-4.584.405c-.164 4.245-.315 8.449-.466 12.612a344.782 344.782 0 00-.234 12.505v6.596h-.013zM209.364 81a21.177 21.177 0 00-3.116-.23h-6.23c-.989 0-2.018.08-3.116.23-.549-1.771-1.29-3.92-2.237-6.421a223.223 223.223 0 00-3.115-7.868 2293.948 2293.948 0 00-3.472-8.327 492.062 492.062 0 01-3.294-8.043 460.698 460.698 0 00-7.631-.176c-2.594-.04-5.174-.054-7.754-.054a415.053 415.053 0 00-14.328.23 518.422 518.422 0 00-6.821 17.181c-2.045 5.434-3.568 9.936-4.584 13.477-1.331-.162-2.786-.23-4.351-.23a39.31 39.31 0 00-4.35.23 3003.081 3003.081 0 0018.555-40.27A5285.49 5285.49 0 00171.732 0h2.237c1.88 4.474 3.911 9.314 6.107 14.518 2.196 5.205 4.42 10.477 6.698 15.803a3015.885 3015.885 0 006.807 15.856 2038.326 2038.326 0 006.409 14.64c2.004 4.515 3.802 8.544 5.407 12.099 1.634 3.528 2.951 6.231 3.967 8.084zm-52.042-35.985c2.031 0 4.158.04 6.34.121 2.196.081 4.31.122 6.341.122a354.805 354.805 0 0013.161-.23L170.126 15.64l-12.804 29.375zm136.361 34.862c.673.136.714 1 .042 1.122-6.492 1.122-21.232 2.123-27.49.136-14.479-4.597-11.885-12.761-17.636-26.766-8.234-20.06-19.186-25.995-19.186-25.995s-.083 10.341-.083 13.978c0 1.622.042 3.65.083 6.002.041 2.406.082 4.934.082 7.543.041 2.609.137 5.272.179 7.975.082 2.704.178 5.232.26 7.543.083 2.312.138 4.326.22 6.043.082 1.757.178 2.92.261 3.555-1.263-.176-2.649-.257-4.131-.257-1.565 0-3.006.081-4.351.257.179-.77.343-2.19.522-4.285.219-2.096.398-4.583.562-7.462.138-2.92.302-6.043.522-9.436.178-3.38.343-6.813.48-10.206.083-3.38.22-6.691.261-9.949.082-3.258.137-5.272.137-7.84v-.176c0-3.325-.466-6.678-1.853-9.706a11.182 11.182 0 01-1.015-4.637c0-2.703.961-5.19 2.566-7.11.302-.433.7-.811 1.084-1.163 2.622 2.772 15.77 16.262 25.239 34.958 14.822 29.28 38.936 35.011 43.245 35.876zm19.475-48.407c0-5.097-.096-10.085-.302-14.992a2327.87 2327.87 0 00-.645-14.991c2.978.162 5.943.284 8.866.405 2.937.122 5.887.176 8.866.176 2.978 0 5.929-.095 8.865-.297 2.937-.19 5.888-.284 8.866-.284 6.89 0 12.791.892 17.677 2.663 4.9 1.77 8.907 4.299 12.036 7.583 3.129 3.285 5.421 7.287 6.876 12.031 1.455 4.745 2.182 10.085 2.182 16.033 0 7.718-1.345 14.22-4.048 19.506-2.704 5.286-6.149 9.544-10.335 12.788a38.779 38.779 0 01-13.861 6.88C353.15 80.324 348.306 81 343.694 81c-2.662 0-5.284-.04-7.864-.121a251.857 251.857 0 00-7.877-.122h-7.864c-2.594 0-5.216.081-7.878.23.233-4.785.453-9.639.645-14.586.192-4.934.302-9.95.302-15.046V31.47zm9.634 19.912c0 8.327.234 16.505.7 24.535 1.647.378 3.87.675 6.698.865 2.827.189 5.723.297 8.687.297 4.309 0 8.619-.5 12.928-1.5 4.31-1 8.166-2.893 11.57-5.678 3.403-2.771 6.189-6.57 8.344-11.395 2.155-4.826 3.225-11.058 3.225-18.696 0-6.705-.837-12.22-2.525-16.546-1.688-4.325-3.994-7.732-6.931-10.246-2.937-2.501-6.45-4.245-10.512-5.205-4.076-.96-8.537-1.446-13.395-1.446-3.527 0-6.807.121-9.868.351-3.06.23-5.792.5-8.221.811a362.695 362.695 0 00-.535 11.626 402.987 402.987 0 00-.178 12.328v19.899h.013zm75.194-9.963c0-6.556 1.071-12.396 3.239-17.533 2.155-5.123 5.174-9.476 9.044-13.018 3.884-3.541 8.523-6.245 13.931-8.097C429.607.92 435.522 0 441.945 0c6.492 0 12.448.933 17.855 2.771 5.408 1.852 10.046 4.556 13.917 8.097 3.884 3.556 6.889 7.895 9.044 13.018C484.916 29.023 486 34.863 486 41.42c0 6.556-1.084 12.41-3.239 17.533-2.155 5.136-5.174 9.476-9.044 13.017-3.871 3.556-8.509 6.192-13.917 7.922-5.407 1.73-11.363 2.609-17.855 2.609-6.423 0-12.338-.865-17.745-2.609-5.408-1.73-10.047-4.38-13.931-7.922-3.87-3.555-6.889-7.88-9.044-13.017-2.168-5.124-3.239-10.977-3.239-17.533zm76.485 0c0-6.407-.823-11.936-2.47-16.6-1.647-4.664-3.939-8.53-6.876-11.571a27.592 27.592 0 00-10.334-6.773c-3.953-1.46-8.248-2.203-12.86-2.203-4.542 0-8.797.73-12.75 2.203-3.952 1.474-7.397 3.718-10.334 6.773-2.937 3.041-5.229 6.907-6.876 11.57-1.647 4.665-2.47 10.207-2.47 16.601 0 6.408.823 11.936 2.47 16.6 1.647 4.664 3.939 8.53 6.876 11.571 2.937 3.055 6.382 5.3 10.334 6.773 3.953 1.46 8.208 2.203 12.75 2.203 4.625 0 8.907-.73 12.86-2.203 3.952-1.46 7.397-3.718 10.334-6.773 2.937-3.041 5.229-6.907 6.876-11.571 1.647-4.65 2.47-10.192 2.47-16.6z"/><path d="M218.791 2.69c-.672-.134-.714-1-.041-1.121 6.491-1.122 21.231-2.123 27.489-.135 14.479 4.596 11.886 12.76 17.636 26.765 8.235 20.06 19.187 25.995 19.187 25.995s.082-10.341.082-13.977c0-1.623-.041-3.65-.082-6.002a428.693 428.693 0 01-.083-7.543c-.041-2.61-.137-5.272-.178-7.976-.083-2.704-.179-5.231-.261-7.543-.082-2.312-.137-4.326-.22-6.043-.082-1.757-.178-2.92-.26-3.555 1.262.176 2.648.257 4.131.257 1.564 0 3.005-.081 4.35-.257-.178.77-.343 2.19-.521 4.285-.22 2.096-.398 4.583-.563 7.462-.137 2.92-.302 6.043-.522 9.436a836.71 836.71 0 00-.48 10.206c-.082 3.38-.219 6.691-.261 9.95-.082 3.257-.137 5.271-.137 7.84v.175c0 3.326.467 6.678 1.853 9.706a11.182 11.182 0 011.015 4.637c0 2.703-.96 5.19-2.566 7.11-.302.433-.7.811-1.084 1.163-2.621-2.771-15.769-16.262-25.239-34.958-14.822-29.28-38.949-34.998-43.245-35.876z"/></g><defs><clipPath id="clip0_482:5464"><path fill="#fff" d="M0 0h486v120H0z"/></clipPath></defs></svg>