<svg width="210" height="36" fill="none" xmlns="http://www.w3.org/2000/svg"><path d="M.41 13.509c0-2.196-.042-4.356-.131-6.481A776.33 776.33 0 000 .646c.878.07 1.78.123 2.692.175a47.32 47.32 0 002.693.076c.877 0 1.779-.041 2.692-.128a30.244 30.244 0 012.692-.123c1.453 0 2.823.11 4.11.326 1.287.216 2.42.6 3.404 1.147a6.324 6.324 0 012.336 2.219c.576.931.866 2.096.866 3.488 0 2.457-.789 4.384-2.36 5.782-1.572 1.397-3.63 2.375-6.168 2.94v.099c3.013.134 5.391.85 7.135 2.143 1.743 1.298 2.615 3.371 2.615 6.23 0 1.863-.392 3.424-1.169 4.687a9.39 9.39 0 01-3.048 3.069 12.638 12.638 0 01-4.139 1.642 21.964 21.964 0 01-4.495.471c-.812 0-1.63-.017-2.461-.052a58.527 58.527 0 00-2.461-.052H2.473c-.83 0-1.649.035-2.461.099.1-2.126.196-4.245.279-6.359.083-2.107.13-4.262.13-6.451v-8.565H.409zm6.902 2.44c1.186 0 2.36-.117 3.528-.35 1.169-.233 2.207-.623 3.126-1.17a6.414 6.414 0 002.206-2.196c.557-.914.836-2.067.836-3.464 0-1.363-.255-2.451-.76-3.267-.51-.815-1.15-1.444-1.927-1.892-.776-.448-1.66-.745-2.639-.897a19.248 19.248 0 00-2.94-.227c-.884 0-1.626.024-2.237.076-.61.052-1.15.11-1.624.175-.072 1.595-.137 3.173-.202 4.733-.065 1.561-.1 3.139-.1 4.734v3.739h2.733v.005zm-2.74 6.928c0 1.695.036 3.372.101 5.037.065 1.66.136 3.342.202 5.036.64.064 1.405.123 2.283.175.877.053 1.773.076 2.692.076a8.95 8.95 0 003.12-.547 7.391 7.391 0 002.615-1.62c.74-.715 1.334-1.595 1.779-2.643.438-1.048.658-2.236.658-3.563 0-1.427-.261-2.597-.789-3.517-.528-.914-1.275-1.625-2.26-2.143-.978-.512-2.158-.873-3.528-1.071-1.37-.198-2.905-.297-4.596-.297H4.566v5.077h.006zm26.853-9.322c0-2.195-.042-4.344-.13-6.457a993.305 993.305 0 00-.28-6.458c.985.07 1.946.123 2.895.175a52.4 52.4 0 002.894.076c.984 0 1.945-.04 2.893-.128A33.56 33.56 0 0142.591.64c1.424 0 2.776.134 4.063.402 1.286.268 2.413.705 3.374 1.322A6.714 6.714 0 0152.31 4.78c.557.996.836 2.242.836 3.739 0 1.595-.362 2.963-1.091 4.11a10.114 10.114 0 01-2.663 2.842 13.52 13.52 0 01-3.374 1.747c-1.198.419-2.295.692-3.273.82.403.501.966 1.194 1.672 2.091.712.897 1.506 1.886 2.39 2.964a548.386 548.386 0 012.74 3.389 601.386 601.386 0 002.74 3.388 105.664 105.664 0 002.49 2.964c.777.897 1.405 1.578 1.88 2.044a11.16 11.16 0 00-1.524-.1h-2.995c-.51 0-.996.036-1.47.1a264.993 264.993 0 00-2.313-3.139 209.172 209.172 0 00-3.428-4.489 259.651 259.651 0 00-3.831-4.757c-1.305-1.578-2.497-2.917-3.576-4.012h-1.927v3.64c0 2.195.041 4.355.124 6.48.083 2.125.178 4.221.279 6.283a27.944 27.944 0 00-2.49-.1c-.878 0-1.709.036-2.491.1.1-2.062.195-4.152.278-6.283.083-2.125.13-4.285.13-6.48v-8.566zm4.163 2.842c.474.099.99.169 1.548.198a29.8 29.8 0 001.85.052c1.05 0 2.14-.116 3.273-.35a9.642 9.642 0 003.126-1.222c.948-.582 1.731-1.363 2.36-2.34.628-.979.943-2.22.943-3.716 0-1.298-.244-2.37-.736-3.214a5.832 5.832 0 00-1.903-2.02A7.353 7.353 0 0043.51 2.76a13.903 13.903 0 00-2.693-.274 45.64 45.64 0 00-2.941.076 40.31 40.31 0 00-1.98.175c-.072 1.828-.137 3.639-.202 5.432a146.392 146.392 0 00-.101 5.386v2.842h-.006zM90.466 34.89a9.175 9.175 0 00-1.346-.1h-2.692c-.427 0-.872.035-1.347.1a48.403 48.403 0 00-.966-2.766 96.148 96.148 0 00-1.346-3.39c-.493-1.181-.99-2.375-1.5-3.586-.51-1.211-.985-2.37-1.424-3.464a200.566 200.566 0 00-6.648-.1 180.799 180.799 0 00-6.19.1 223.224 223.224 0 00-2.948 7.4c-.884 2.341-1.542 4.28-1.98 5.805a15.718 15.718 0 00-1.88-.099c-.677 0-1.305.035-1.88.1 2.74-5.817 5.414-11.6 8.017-17.346A2281.7 2281.7 0 0074.206 0h.966c.813 1.927 1.69 4.012 2.639 6.254.949 2.241 1.91 4.512 2.894 6.806a1331.62 1331.62 0 002.941 6.83 813.74 813.74 0 005.106 11.517c.706 1.52 1.275 2.685 1.714 3.482zM67.98 19.39c.877 0 1.796.017 2.74.052a74.34 74.34 0 002.74.052 153.29 153.29 0 005.686-.099L73.512 6.737 67.979 19.39zm58.92 15.016c.29.058.308.431.017.483-2.805.484-9.174.915-11.878.059-6.256-1.98-5.135-5.497-7.62-11.53-3.558-8.64-8.29-11.196-8.29-11.196s-.036 4.454-.036 6.02c0 .7.018 1.573.035 2.586.018 1.036.036 2.125.036 3.249.018 1.123.06 2.27.077 3.435.036 1.165.077 2.253.113 3.25.035.995.06 1.862.095 2.602.035.757.077 1.258.112 1.531a13.09 13.09 0 00-1.785-.11c-.676 0-1.298.035-1.88.11.078-.332.149-.943.226-1.846.095-.902.172-1.973.243-3.214.06-1.257.13-2.602.225-4.064.077-1.456.149-2.934.208-4.396.035-1.456.095-2.882.113-4.285.035-1.404.059-2.271.059-3.378v-.075c0-1.433-.202-2.877-.8-4.181a4.804 4.804 0 01-.44-1.997c0-1.165.416-2.236 1.11-3.063.13-.186.302-.35.468-.5 1.133 1.193 6.814 7.004 10.906 15.057 6.404 12.612 16.824 15.08 18.686 15.453zm8.415-20.851c0-2.195-.041-4.344-.13-6.457a979.63 979.63 0 00-.279-6.458c1.287.07 2.568.123 3.831.175a92.79 92.79 0 003.831.076c1.287 0 2.562-.04 3.831-.128A59.7 59.7 0 01150.23.64c2.977 0 5.527.385 7.638 1.148 2.117.762 3.849 1.851 5.201 3.266 1.352 1.415 2.342 3.138 2.971 5.182.628 2.044.943 4.344.943 6.906 0 3.325-.581 6.125-1.75 8.402-1.168 2.277-2.656 4.11-4.465 5.508a16.774 16.774 0 01-5.99 2.964c-2.182.582-4.275.873-6.268.873-1.15 0-2.283-.017-3.398-.052a109.266 109.266 0 00-3.404-.052h-3.398a61.27 61.27 0 00-3.404.099c.101-2.062.196-4.152.279-6.283.083-2.125.13-4.285.13-6.48v-8.566zm4.163 8.577c0 3.587.101 7.11.303 10.568.712.163 1.672.291 2.894.373 1.221.081 2.473.128 3.754.128 1.862 0 3.724-.216 5.586-.647a12.133 12.133 0 004.999-2.445c1.471-1.194 2.675-2.83 3.606-4.909.931-2.078 1.393-4.762 1.393-8.052 0-2.888-.361-5.264-1.091-7.127-.729-1.863-1.726-3.33-2.995-4.414-1.269-1.077-2.787-1.828-4.542-2.242-1.761-.413-3.689-.623-5.788-.623-1.524 0-2.941.053-4.264.152a68.943 68.943 0 00-3.552.35 153.19 153.19 0 00-.231 5.007 171.71 171.71 0 00-.077 5.31v8.571h.005zm32.491-4.292c0-2.823.462-5.339 1.399-7.551.931-2.207 2.236-4.082 3.908-5.608 1.679-1.525 3.683-2.69 6.019-3.487C185.632.396 188.188 0 190.963 0c2.805 0 5.379.402 7.715 1.194 2.337.797 4.341 1.962 6.014 3.487 1.678 1.532 2.977 3.4 3.908 5.608.931 2.212 1.399 4.728 1.399 7.552s-.468 5.345-1.399 7.552c-.931 2.212-2.236 4.081-3.908 5.607-1.673 1.531-3.677 2.667-6.014 3.412-2.336.745-4.91 1.124-7.715 1.124-2.775 0-5.331-.373-7.668-1.124-2.336-.745-4.34-1.887-6.019-3.412-1.672-1.532-2.977-3.395-3.908-5.607-.937-2.207-1.399-4.728-1.399-7.552zm33.049 0c0-2.76-.356-5.14-1.068-7.15-.711-2.008-1.702-3.674-2.971-4.984a11.922 11.922 0 00-4.465-2.917c-1.708-.629-3.564-.949-5.557-.949-1.963 0-3.801.314-5.509.95a11.852 11.852 0 00-4.465 2.916c-1.269 1.31-2.26 2.976-2.971 4.984-.712 2.01-1.068 4.396-1.068 7.15 0 2.76.356 5.142 1.068 7.15.711 2.01 1.702 3.675 2.971 4.985a11.853 11.853 0 004.465 2.917c1.708.63 3.546.95 5.509.95 1.999 0 3.849-.315 5.557-.95a11.784 11.784 0 004.465-2.917c1.269-1.31 2.26-2.975 2.971-4.984.712-2.003 1.068-4.39 1.068-7.15z" fill="#319D50"/><path d="M94.538 1.159c-.291-.058-.309-.431-.018-.483 2.805-.484 9.174-.915 11.878-.059 6.256 1.98 5.136 5.497 7.62 11.53 3.558 8.64 8.291 11.196 8.291 11.196s.035-4.454.035-6.02c0-.7-.017-1.572-.035-2.586a185.476 185.476 0 01-.036-3.249c-.018-1.123-.059-2.27-.077-3.435-.035-1.165-.077-2.253-.113-3.25-.035-.995-.059-1.862-.094-2.602a21.483 21.483 0 00-.113-1.531c.545.076 1.144.11 1.785.11.676 0 1.299-.034 1.88-.11-.077.332-.149.943-.226 1.846a71.136 71.136 0 00-.243 3.214c-.059 1.257-.13 2.602-.225 4.064a374.129 374.129 0 00-.208 4.396c-.035 1.456-.095 2.882-.112 4.286-.036 1.403-.06 2.27-.06 3.377v.075c0 1.433.202 2.877.801 4.181a4.8 4.8 0 01.439 1.997 4.75 4.75 0 01-1.109 3.063c-.131.186-.303.35-.469.5-1.132-1.193-6.813-7.004-10.905-15.057C106.819 4 96.394 1.537 94.538 1.16z" fill="#319D50"/></svg>