<svg width="176" height="30" fill="none" xmlns="http://www.w3.org/2000/svg"><path d="M.343 11.257c0-1.83-.035-3.63-.11-5.4A561.925 561.925 0 000 .539C.736.597 1.491.64 2.256.684c.766.044 1.516.063 2.257.063.735 0 1.49-.034 2.256-.107a25.49 25.49 0 012.257-.1c1.217 0 2.365.092 3.444.271 1.078.18 2.028.5 2.853.956a5.288 5.288 0 011.958 1.849c.482.776.726 1.747.726 2.906 0 2.048-.661 3.654-1.979 4.819-1.317 1.164-3.041 1.98-5.168 2.45v.083c2.524.111 4.517.708 5.979 1.785 1.46 1.082 2.191 2.81 2.191 5.192 0 1.553-.328 2.853-.979 3.906a7.847 7.847 0 01-2.554 2.557 10.628 10.628 0 01-3.47 1.369 18.51 18.51 0 01-3.767.393c-.68 0-1.366-.015-2.062-.044a49.132 49.132 0 00-2.063-.044H2.073c-.696 0-1.382.03-2.063.083.084-1.771.164-3.538.234-5.299.07-1.756.109-3.552.109-5.376v-7.138h-.01zm5.785 2.033c.994 0 1.978-.097 2.957-.29.98-.195 1.85-.52 2.62-.976a5.36 5.36 0 001.848-1.83c.468-.761.701-1.722.701-2.887 0-1.135-.213-2.042-.636-2.722a4.6 4.6 0 00-1.615-1.577c-.651-.373-1.392-.62-2.212-.747-.82-.126-1.645-.19-2.465-.19a22.469 22.469 0 00-3.236.21c-.06 1.329-.114 2.644-.169 3.944a93.868 93.868 0 00-.084 3.945v3.115h2.291v.005zm-2.296 5.774c0 1.412.03 2.81.084 4.198.055 1.382.115 2.785.17 4.197.536.053 1.177.102 1.913.145.735.044 1.486.063 2.256.063.91 0 1.78-.15 2.615-.456a6.202 6.202 0 002.191-1.349c.622-.596 1.119-1.33 1.491-2.203.368-.873.552-1.863.552-2.97 0-1.188-.219-2.163-.66-2.93-.443-.762-1.07-1.354-1.895-1.786-.82-.427-1.809-.727-2.957-.892-1.148-.165-2.435-.248-3.852-.248H3.827v4.231h.005zm22.505-7.768c0-1.83-.035-3.62-.11-5.381a751.253 751.253 0 00-.233-5.381c.825.058 1.63.102 2.425.145.796.044 1.6.063 2.426.063.825 0 1.63-.034 2.425-.106a28.43 28.43 0 012.426-.102c1.193 0 2.326.111 3.404.334 1.079.224 2.023.588 2.828 1.102a5.609 5.609 0 011.914 2.014c.467.83.7 1.868.7 3.115 0 1.33-.303 2.47-.914 3.425a8.447 8.447 0 01-2.232 2.368 11.354 11.354 0 01-2.828 1.456c-1.003.35-1.923.577-2.743.684.338.417.81.995 1.401 1.742a201.61 201.61 0 002.004 2.47c.735.898 1.505 1.844 2.296 2.824.795.985 1.56 1.926 2.296 2.824a88.192 88.192 0 002.087 2.47 30.452 30.452 0 001.576 1.703 9.415 9.415 0 00-1.277-.083h-2.51c-.428 0-.835.03-1.233.083a221.565 221.565 0 00-1.938-2.616 174.796 174.796 0 00-2.873-3.74 217.001 217.001 0 00-3.21-3.965c-1.094-1.315-2.093-2.43-2.998-3.343h-1.615v3.033c0 1.829.035 3.629.104 5.4.07 1.771.15 3.518.234 5.236a23.572 23.572 0 00-2.087-.083c-.736 0-1.432.03-2.088.083.085-1.718.164-3.46.234-5.236.07-1.771.11-3.571.11-5.4v-7.138zm3.49 2.368c.397.082.83.14 1.296.165.467.029.984.043 1.55.043.88 0 1.795-.097 2.744-.29a8.11 8.11 0 002.62-1.02 6.156 6.156 0 001.978-1.95c.527-.815.79-1.849.79-3.096 0-1.082-.204-1.975-.616-2.678a4.871 4.871 0 00-1.596-1.684 6.183 6.183 0 00-2.127-.854c-.765-.15-1.52-.228-2.256-.228-.994 0-1.814.02-2.466.063a33.98 33.98 0 00-1.66.145c-.06 1.524-.114 3.033-.168 4.528a122.855 122.855 0 00-.085 4.488v2.368h-.005zm45.992 15.411a7.739 7.739 0 00-1.128-.083h-2.257c-.358 0-.73.03-1.128.082a40.181 40.181 0 00-.81-2.304 79.557 79.557 0 00-1.128-2.824c-.413-.985-.83-1.98-1.258-2.99a181.978 181.978 0 01-1.193-2.886 169.053 169.053 0 00-5.571-.083 152.396 152.396 0 00-5.189.083c-.91 2.159-1.73 4.216-2.47 6.167-.74 1.95-1.292 3.566-1.66 4.838a13.26 13.26 0 00-1.575-.083c-.567 0-1.094.03-1.576.082 2.296-4.847 4.538-9.665 6.72-14.454A1896.28 1896.28 0 0062.19 0H63c.68 1.606 1.416 3.343 2.212 5.211.795 1.868 1.6 3.76 2.425 5.672.82 1.912 1.645 3.81 2.465 5.692a735.957 735.957 0 002.321 5.255c.726 1.62 1.377 3.067 1.958 4.343.592 1.266 1.069 2.237 1.437 2.902zM56.972 16.157c.736 0 1.506.014 2.296.044.796.029 1.561.043 2.297.043a129.061 129.061 0 004.766-.082L61.609 5.614l-4.637 10.544zm49.382 12.515c.244.048.259.359.015.402-2.351.403-7.689.762-9.955.049-5.243-1.65-4.304-4.58-6.386-9.607-2.983-7.201-6.949-9.331-6.949-9.331s-.03 3.712-.03 5.017c0 .582.015 1.31.03 2.154.015.864.03 1.771.03 2.708.015.936.05 1.892.065 2.863.03.97.064 1.878.094 2.707.03.83.05 1.553.08 2.17.03.63.064 1.047.094 1.275-.457-.063-.96-.092-1.496-.092-.567 0-1.088.03-1.575.092.064-.276.124-.786.189-1.538.079-.752.144-1.645.203-2.678.05-1.048.11-2.17.19-3.387.064-1.213.123-2.446.173-3.663.03-1.214.08-2.402.094-3.572.03-1.17.05-1.892.05-2.814v-.063c0-1.194-.169-2.397-.67-3.484a3.984 3.984 0 01-.369-1.664c0-.97.348-1.864.93-2.553.11-.155.253-.29.392-.417.95.995 5.711 5.837 9.14 12.548 5.368 10.51 14.101 12.567 15.661 12.878zm7.053-17.376c0-1.83-.034-3.62-.109-5.381-.07-1.757-.149-3.552-.234-5.381 1.079.058 2.152.102 3.211.145 1.064.044 2.132.063 3.211.063a46.96 46.96 0 003.21-.106 50.353 50.353 0 013.211-.102c2.495 0 4.632.32 6.402.956 1.774.635 3.225 1.543 4.358 2.722 1.134 1.179 1.964 2.615 2.49 4.318.527 1.703.791 3.62.791 5.755 0 2.77-.487 5.104-1.467 7.002-.979 1.897-2.226 3.425-3.742 4.59a14.096 14.096 0 01-5.02 2.47c-1.829.485-3.583.727-5.253.727-.964 0-1.914-.014-2.848-.043a92.063 92.063 0 00-2.853-.044h-2.848c-.939 0-1.888.03-2.853.083.085-1.718.164-3.46.234-5.236.07-1.771.109-3.571.109-5.4v-7.138zm3.489 7.147c0 2.99.085 5.925.254 8.807.596.136 1.401.243 2.425.31 1.024.069 2.073.107 3.146.107 1.561 0 3.122-.18 4.682-.538a10.192 10.192 0 004.19-2.038c1.233-.995 2.241-2.358 3.022-4.09.78-1.733 1.168-3.97 1.168-6.711 0-2.407-.303-4.387-.915-5.94-.611-1.552-1.446-2.775-2.51-3.677-1.063-.898-2.336-1.524-3.807-1.868-1.476-.345-3.091-.52-4.851-.52a48.16 48.16 0 00-3.573.127 58.335 58.335 0 00-2.977.29c-.085 1.33-.149 2.723-.194 4.174a143.066 143.066 0 00-.065 4.425v7.142h.005zm27.231-3.576c0-2.353.388-4.45 1.173-6.293.78-1.84 1.874-3.402 3.275-4.673 1.407-1.271 3.087-2.242 5.045-2.906C155.578.33 157.72 0 160.046 0c2.351 0 4.508.335 6.466.995 1.958.664 3.638 1.635 5.04 2.906 1.406 1.276 2.495 2.834 3.275 4.673.78 1.844 1.173 3.94 1.173 6.293 0 2.354-.393 4.455-1.173 6.294-.78 1.843-1.874 3.401-3.275 4.672-1.402 1.276-3.082 2.223-5.04 2.844-1.958.62-4.115.936-6.466.936-2.326 0-4.468-.31-6.426-.936-1.958-.621-3.638-1.572-5.045-2.844-1.401-1.276-2.495-2.829-3.275-4.672-.785-1.84-1.173-3.94-1.173-6.294zm27.698 0c0-2.3-.298-4.284-.894-5.958-.597-1.674-1.427-3.062-2.49-4.154a10 10 0 00-3.743-2.43c-1.431-.525-2.987-.792-4.657-.792-1.645 0-3.186.262-4.617.791a9.949 9.949 0 00-3.743 2.431c-1.063 1.092-1.893 2.48-2.49 4.154-.596 1.674-.894 3.663-.894 5.958 0 2.3.298 4.285.894 5.959.597 1.674 1.427 3.061 2.49 4.153a9.949 9.949 0 003.743 2.431c1.431.524 2.972.791 4.617.791 1.675 0 3.226-.262 4.657-.79a9.883 9.883 0 003.743-2.432c1.063-1.091 1.893-2.48 2.49-4.153.596-1.67.894-3.659.894-5.959z" fill="#319D50"/><path d="M79.232.966c-.243-.049-.258-.36-.015-.403 2.351-.403 7.69-.762 9.955-.048 5.244 1.65 4.305 4.58 6.387 9.607 2.982 7.2 6.948 9.33 6.948 9.33s.03-3.711.03-5.016c0-.583-.015-1.31-.03-2.155-.015-.864-.03-1.77-.03-2.707-.015-.937-.049-1.893-.064-2.863-.03-.97-.065-1.878-.095-2.708-.03-.83-.049-1.552-.079-2.169-.03-.63-.065-1.048-.095-1.276.458.063.96.092 1.496.092.567 0 1.089-.029 1.576-.092-.065.277-.124.786-.189 1.538a57.84 57.84 0 00-.204 2.679 178.227 178.227 0 01-.189 3.387 315.447 315.447 0 00-.174 3.663c-.029 1.213-.079 2.402-.094 3.571-.03 1.17-.05 1.893-.05 2.815v.063c0 1.193.169 2.397.671 3.484.234.51.368 1.072.368 1.664 0 .97-.348 1.863-.929 2.552a2.73 2.73 0 01-.393.418c-.949-.995-5.71-5.838-9.14-12.548C89.525 3.334 80.788 1.28 79.233.966z" fill="#319D50"/></svg>